<?xml version="1.0" standalone="no"?> 
<!DOCTYPE svg PUBLIC "-//W3C//DTD SVG 1.1//EN" "http://www.w3.org/Graphics/SVG/1.1/DTD/svg11.dtd" >
<svg xmlns="http://www.w3.org/2000/svg">
<defs>
  <font id="railfont" horiz-adv-x="300">
    <font-face font-family="railfont"
      units-per-em="300" ascent="300"
      descent="0" />
    <missing-glyph horiz-adv-x="0" />
    <glyph glyph-name="headlight"
      unicode="&#xE001;"
      horiz-adv-x="300" d=" M139.8127102391699 45.9513446306875C122.5992183842643 47.0587839833263 104.163858202144 51.3985697417548 85.6210493602984 58.7083979730961C78.8054458455835 61.3952026551936 66.0538378574199 67.508569488054 59.7437877205703 71.1144513210323C53.5356657710919 74.6620811864239 43.4458835677814 81.4017204503666 37.8040401920624 85.7694699878824C31.857014616425 90.3735014114409 21.8629087895605 100.0740697626131 17.5516579913125 105.4270145602045C3.5969595024101 122.7534741298665 -2.0507038259732 140.6220171555588 0.6592360289884 158.8725711988571C3.6193033130818 178.8076559242889 17.3564742148587 198.8367374986341 39.6402414229883 215.707712036099C68.9652159218076 237.9095778281956 108.7044757684334 252.8712909784049 141.6601536746433 254.1179397776703C148.6858512017976 254.3837161514376 151.3561440731316 253.9619350557176 155.3639786556854 251.9534185519147C167.2788729562382 245.9822375435868 175.0221185035887 229.104955919607 179.1979767055437 200.0046256692185C183.2962223102957 171.4450324181885 183.374798687011 129.8018204755619 179.3845814270145 101.1162980926567C176.0159877792758 76.899792962208 170.1269264546941 60.9325317963381 161.5054935195985 52.640130352124C155.5617660541454 46.9232595760117 150.2350984214945 45.2808233814044 139.8127102391699 45.9513446306875zM149.7673677201989 59.7006656740053C156.9337203632485 63.1698467217347 163.5443690780414 80.5886023529354 166.6774887137403 104.2581059171952C169.8273894515372 128.0541764085957 170.1831233042028 164.3705364666057 167.5073170471288 188.9724967090946C164.4212525287991 217.3465907504474 157.9447534181928 236.1127526596417 149.7847299246499 240.3251352704703C145.8688370729317 242.3466061047779 128.8371253726437 240.6229856594806 113.2018125480029 236.6229321791664C83.2352656183422 228.9564630085597 53.7775531688574 213.0740286130075 35.2207298390436 194.5786037074236C16.552482259016 175.972131559494 9.5916205891083 156.9796090239432 14.5738244949004 138.2441179804076C20.9777963625544 114.1620884383924 47.6709568870715 89.3554809550318 84.3299901680316 73.4179977414489C104.5288230782862 64.6365632340699 127.3144841367798 59.0544940306379 143.6858906506159 58.8768609625691C147.2734606728588 58.8378845852302 148.2617456966654 58.971821590995 149.7673677201989 59.7006656740053z M294.3463843410018 251.2647413974057A5.625562446841537 5.625562446841537 0 0 1 293.3968914425687 251.1651036036992C261.5222509996496 245.5404580229849 229.64731291894 239.9154722847957 197.7718929484741 234.2901038694472A5.625562446841537 5.625562446841537 0 1 1 199.7262535476181 223.211727665957C231.6015884787152 228.8370960813056 263.476668291706 234.462110165951 295.3512520417126 240.086727400209A5.625562446841537 5.625562446841537 0 0 1 294.3463843410018 251.2647555706338z M198.6079008093244 76.8897441434686A5.625562446841537 5.625562446841537 0 0 1 197.7718929484741 65.7117159730439C229.6473129189399 60.0863475576953 261.5222509996496 54.4613618195061 293.3968914425686 48.8367162387919A5.625562446841537 5.625562446841537 0 1 1 295.3512520417125 59.915092442282C263.476668291706 65.53970967654 231.6015884787151 71.1647237611855 199.726253547618 76.790092176534A5.625562446841537 5.625562446841537 0 0 1 198.6079008093244 76.8897299702405z M294.6149103210251 206.2592003738709A5.625562446841537 5.625562446841537 0 0 1 293.6626394698797 206.203783051909C264.2879722159375 202.4541563393046 234.9121569305173 198.7041611227691 205.5367243222563 194.9537832290743A5.625562446841537 5.625562446841537 0 1 1 206.9623526462622 183.795129861494C236.3377002151544 187.5455077551889 265.7136855793121 191.2955171449525 295.0882677938856 195.0451296843287A5.625562446841537 5.625562446841537 0 0 1 294.6149103210251 206.2591436809584z M206.4031762771153 116.2564380117096A5.625562446841537 5.625562446841537 0 0 1 205.5367243222563 105.045187794564C234.9121569305172 101.2948099008692 264.2879722159375 97.5448288575617 293.6626394698797 93.7951879717293A5.625562446841537 5.625562446841537 0 1 1 295.0882677938855 104.9538413393096C265.7136855793121 108.7034680519139 236.3377002151543 112.4534632684494 206.9623526462622 116.2038411621443A5.625562446841537 5.625562446841537 0 0 1 206.4031762771153 116.2564238384816z M208.124996722441 155.6258956594347A5.625562446841537 5.625562446841537 0 1 1 208.124996722441 144.3758958366001C236.8753332775538 144.3762643405313 265.6245076279605 144.3762643405313 294.3740788287547 144.3758958366001A5.625562446841537 5.625562446841537 0 1 1 294.3740788287547 155.6258956594347C265.6244084153637 155.6262641633659 236.8754183169226 155.6262641633659 208.124996722441 155.6258956594347z" />
    <glyph glyph-name="interior-light"
      unicode="&#xE002;"
      horiz-adv-x="300" d=" M5.7547369751662 175.3539809447087A5.623616955465 5.623616955465 0 1 1 5.7547369751662 164.1078716447087C24.7523673116872 164.1080253415358 43.7500355101094 164.1079166291459 62.7474694145879 164.1078716447087A5.623616955465 5.623616955465 0 1 1 62.7474694145879 175.3539809447087C43.7499980230784 175.3540259291459 24.7524089222916 175.3541346415357 5.7547369751662 175.3539809447087z M237.2525302054121 175.3539809447087A5.623616955465 5.623616955465 0 1 1 237.2525302054121 164.1078716447087C256.2501590424518 164.1080253415358 275.2478291152256 164.1079166291459 294.2452630197041 164.1078716447087A5.623616955465 5.623616955465 0 1 1 294.2452630197041 175.3539809447087C275.2477916281946 175.3540259291459 256.2502002781859 175.3541346415357 237.2525302054121 175.3539809447087z M149.9150691925664 88.1812566895924A5.623616955465 5.623616955465 0 0 1 144.37694516 82.4783958992966C144.3770988568271 63.4807633135538 144.3769901444372 44.483096989483 144.37694516 25.4856630850045A5.623616955465 5.623616955465 0 1 1 155.62305446 25.4856630850045C155.6230994444372 44.483134476514 155.6232081568271 63.4807220778197 155.62305446 82.4783958992966A5.623616955465 5.623616955465 0 0 1 149.9150691925664 88.1812566895924z M135.2394888511562 283.9681998079259C123.5480523663917 283.9681998079259 113.9386568294765 274.3591004185555 113.9386568294765 262.6675664675105V224.4393268957661C95.6059954405334 212.3755167372662 84.4291734199307 191.8471762147004 84.397583098907 169.7400768789758V169.7354284871318V169.7309675304428C84.3975868476101 152.3345844769775 91.3109488533332 135.6441646887105 103.6120519180631 123.3430631234618C115.9131512340899 111.0419615582131 132.6035695228757 104.1286081745072 149.9999473281566 104.1285984278791C167.3963288821406 104.1285984278791 184.0867509196295 111.0419615582132 196.3878502356563 123.3430631234618C208.6889533003862 135.6441646887105 215.6023153061093 152.3345844769775 215.6023153061093 169.7309675304428V169.7343413632328V169.7377151960228C215.5775738656493 191.8520757696521 204.3998896433336 212.3897618090462 186.0612453242429 224.4574931109887V262.6673302992152C186.0612453242429 274.3587630352765 176.4520372224827 283.9679636396306 164.7606119838275 283.9679636396306zM135.2394888511562 271.3562767743626H164.7606119838275C169.6834051460444 271.3562767743626 173.4493185419765 267.5903708758367 173.4493185419765 262.6675664675105V217.3230325964276L176.5908666930881 215.5005218615974C192.921375745946 206.0266119521224 202.9678363259933 188.6074832677276 202.9903997699522 169.7280735316495C202.9896500293322 155.6727371108717 197.408648330708 142.1996323864219 187.4699704621919 132.2609553426205C177.5305990836023 122.3215940105552 164.0563356350243 116.7405353316439 149.9999473281566 116.7405252101455C135.9435665186951 116.7405353316439 122.4692918240078 122.3215940105552 112.5299316915275 132.2609553426205C102.5914337607602 142.1994539481544 97.0104845439794 155.6722411574516 97.0095023837672 169.7272900527016C97.0383299106062 188.6003644805407 107.0839432837529 206.0113584792085 123.409024214522 215.4821232267826L126.5505836117429 217.3046339616127V262.6675664675105C126.5505836117429 267.590269660853 130.3166769454238 271.3562767743626 135.2394888511562 271.3562767743626z M213.0411788559707 115.3234794507958A5.623616955465 5.623616955465 0 0 1 209.1240765153125 105.667640481434C222.5572879162424 92.2343657274217 235.9906080295622 78.8016229143794 249.4241005832246 65.3683515341999A5.623616955465 5.623616955465 0 1 1 257.3761832335205 73.3204341844958C243.9427169207798 86.7536793237536 230.5093405769135 100.1864768678612 217.0761591656084 113.6197231317299A5.623616955465 5.623616955465 0 0 1 213.0411788559707 115.3234794507958z M87.4222841743916 114.5276121637612A5.623616955465 5.623616955465 0 0 1 83.5564341025166 112.8267847064274C70.1232489425084 99.3935369430774 56.6898725986421 85.9600114008277 43.2564100346045 72.5267625128668A5.623616955465 5.623616955465 0 1 1 51.2084926849004 64.574679862571C64.6419852385628 78.0079587401566 78.0753091005857 91.4406978044959 91.5085167528125 104.8739695595457A5.623616955465 5.623616955465 0 0 1 87.4222841743916 114.5276121637612z" />
    <glyph glyph-name="turnout-cross-cross"
      unicode="&#xE003;"
      horiz-adv-x="300" d=" M0 298.1249768799217V289.6874770127957V239.0430959205812L71.1457302181775 167.8973742063406L89.042198755241 150.0008957480174L71.1457302181775 132.1016676834383L0 60.9559317959696V-0.0000184251966H86.2490764370224V25.2626551927141L149.9981503937299 89.0117234801303L213.7499966338583 25.2626551927141V-0.0000184251966H299.999078740172V60.9946955748867L228.8920924583923 132.1016676834383L213.7499966338583 147.2437635079722V147.2352595710983L210.987322661617 149.9979335433396L213.7499966338583 152.760607515581V152.752103578707L228.8920924583923 167.8969773559531L299.999078740172 239.0039494645047V298.1249768799217H213.7499966338583V274.7391504765488L149.9981503937299 210.9873042364204L86.2490764370224 274.7391504765488V298.1249768799217zM0 215.1783703121516V194.809896617167V84.8206574043991L65.1774717294886 150.0008957480174zM299.999078740172 215.1396773993752L285.5960884158096 200.7366870750128L234.8603537817267 149.9981886614458L299.999078740172 84.8594778762287zM16.874999734252 174.4387016623827L41.3127461210591 150.0009524409299L16.874999734252 125.5604394399931zM283.12407900592 174.3971741039815V125.5991890456821L258.7250793901562 149.9981744882177z" />
    <glyph glyph-name="turnout-cross-none"
      unicode="&#xE004;"
      horiz-adv-x="300" d=" M0 298.1249768799217V289.6874770127957V-0.0000184251966H86.2490764370224V25.2626551927141L149.9981503937299 89.0117234801303L213.7499966338583 25.2626551927141V-0.0000184251966H299.999078740172V298.1249768799217H213.7499966338583V274.7391504765488L149.9981503937299 210.9873042364204L86.2490764370224 274.7391504765488V298.1249768799217zM16.874999734252 281.2499771456696H69.3740767027704V267.7466608228873L150.000914173214 187.1225786279909L230.6249963681103 267.7466608228872V281.2499771456696H283.12407900592V16.8749813090554H230.6249963681103V32.2523810668916L150.000914173214 112.8764490885599L69.3740767027704 32.2523810668916V16.8749813090554H16.874999734252zM69.3740767027704 193.5032950629403V173.1320575884715V106.4984964330946L112.8764746003705 150.0008957480174zM230.6249963681103 193.5032950629403L216.2220060437479 179.0975409590939L187.1225970531874 150.0008957480174L230.6249963681103 106.4984964330945zM213.7499966338583 152.7635697202588V147.2382359490042L210.987322661617 150.0008957480174zM86.2490764370224 152.7607350746341L89.0117475746181 150.0008248818768L86.2490764370224 147.2381650828635z" />
    <glyph glyph-name="turnout-cross-straight"
      unicode="&#xE005;"
      horiz-adv-x="300" d=" M0 298.1249768799217V289.6874770127957V-0.0000184251966H86.1937115560046V298.1249768799217zM213.8053572629078 298.1249768799217V289.6874770127957V-0.0000184251966H299.999078740172V298.1249768799217zM103.0687112902565 257.9195113713463V237.5482738968776V42.0822942979166L150.000914173214 89.0117234801303L196.9303575286558 42.0822942979166V257.9167475918622L150.000914173214 210.9873042364204zM119.9437110245085 217.1797860286648L150.000914173214 187.1225786279909L180.0553577944038 217.1797860286648V82.8220196405981L150.000914173214 112.8764490885599L119.9437110245085 82.819241687886z" />
    <glyph glyph-name="turnout-left-left"
      unicode="&#xE006;"
      horiz-adv-x="300" d=" M193.1244064074896 298.1249768799217V289.6874770127957V177.5971772031941L106.875324301176 263.8462451362796V298.1249768799217zM60.9867344726498 285.8977995921607L66.9522320165003 279.9295411034718L95.94644730793 250.938091008849L95.9322740798067 250.9239177807257L193.1240804232428 153.7321114372896V-0.0000184251966H106.8722345374451V118.0336332593129L0 224.9086315762421zM176.2494066732377 281.2499771456696H123.750324035428V270.8359710104571L176.2494066732377 218.3369025458756z" />
    <glyph glyph-name="turnout-left-none"
      unicode="&#xE007;"
      horiz-adv-x="300" d=" M193.1240804232428 298.1249924704726V0.0000099212597H106.8749983169292V118.0336616057691L0 224.9086599226983L60.986408488403 285.8950471512591L106.8749983169292 240.0092281888311V298.1249924704726H115.3125052706692zM176.2490806889909 281.2499927362206H123.7499980511811V199.2695028461496L60.986408488403 262.0331065821558L23.8647397816576 224.9086599226983L123.7499980511811 125.0233874799467V16.8750096555117H176.2490806889909z" />
    <glyph glyph-name="turnout-left-straight"
      unicode="&#xE008;"
      horiz-adv-x="300" d=" M193.1240804232428 298.1249995570866V289.6874996899607V0.0000099212597H106.8749983169292V121.875924537387H106.9275809932664V251.2509224999855H106.8749983169292V298.1249995570866zM60.986408488403 285.8978222693256L66.9519060322535 279.9295637806368L90.0525954322426 256.8316310735176V134.8560644904557L0 224.9086599226983zM60.986408488403 262.0331065821558L23.8647397816576 224.9086599226983L73.1775956979906 175.593011880425V249.8419051993401z" />
    <glyph glyph-name="turnout-right-none"
      unicode="&#xE009;"
      horiz-adv-x="300" d=" M106.8749983169292 298.1249981397638V0.0000099212597H193.1240804232428V118.0336616057691L299.999078740172 224.9086599226983L239.012670251769 285.8950528205504L193.1240804232428 240.0092281888311V298.1249981397638H184.6865734695028zM123.7499980511811 281.2499984055119H176.2490806889909V199.2695028461496L239.012670251769 262.0331065821558L276.1343389585144 224.9086599226983L176.2490806889909 125.0233874799467V16.8750096555117H123.7499980511811z" />
    <glyph glyph-name="turnout-right-right"
      unicode="&#xE00A;"
      horiz-adv-x="300" d=" M106.8749983169292 298.1249768799217V289.6874770127957V177.5971772031941L193.1240804232428 263.8462451362796V298.1249768799217zM239.012670251769 285.8977995921607L233.0471727079185 279.9295411034718L204.0529574164889 250.938091008849L204.0671306446121 250.9239177807257L106.875324301176 153.7321114372896V-0.0000184251966H193.1271701869737V118.0336332593129L299.9994047244188 224.9086315762421zM123.7499980511811 281.2499771456696H176.2490806889909V270.8359710104571L123.7499980511811 218.3369025458756z" />
    <glyph glyph-name="turnout-right-straight"
      unicode="&#xE00B;"
      horiz-adv-x="300" d=" M106.8749983169292 298.1249768799217V289.6874770127957V-0.0000184251966H193.1240804232428V121.8758961909308H193.0714977469055V251.2508941535292H193.1240804232428V298.1249768799217zM239.012670251769 285.8977995921607L233.0471727079185 279.9295411034718L209.9464833079294 256.8316027270614V134.8560361439994L299.999078740172 224.908631576242zM239.012670251769 262.0330782356996L276.1343389585144 224.9086315762421L226.8214830421814 175.5929835339688V249.8418768528839z" />
    <glyph glyph-name="turnout-symmetric-left"
      unicode="&#xE00C;"
      horiz-adv-x="300" d=" M60.9891722678871 285.8977995921607L55.0209137791982 279.9295411034718L0 224.9086315762421L106.8749983169292 118.0336332593129V-0.0000184251966H193.1240804232428V26.500048874015H193.0714977469055V153.826561829503L150.0064700786383 196.8915894977703L150.0008007873889 196.8859202065209zM239.012670251769 285.8977995921607L233.0444089284345 279.9295411034718L161.9374368198829 208.822570412243L209.9464833079294 160.8162877036805V134.8560361439994L299.999078740172 224.908631576242zM239.012670251769 262.0330782356996L276.1343389585144 224.9086315762421L222.92660908777 171.7008875322695L185.8021624283124 208.822570412243z" />
    <glyph glyph-name="turnout-symmetric-none"
      unicode="&#xE00D;"
      horiz-adv-x="300" d=" M60.9891722678871 285.8977995921607L55.0209137791982 279.9295411034718L0 224.9086315762421L106.8749983169292 118.0336332593129V-0.0000184251966H193.1240804232428V118.0336332593129L299.999078740172 224.9086315762421L239.012670251769 285.8977995921607L150.000914173214 196.8860477655741zM60.9891722678871 262.0330782356996L150.000914173214 173.0213221571446L239.012670251769 262.0330782356996L276.1343389585144 224.9086315762421L176.2490806889909 125.0233591334904V16.8749813090554H123.7499980511811V125.0233591334904L23.8647270257523 224.9086315762421z" />
    <glyph glyph-name="turnout-symmetric-right"
      unicode="&#xE00E;"
      horiz-adv-x="300" d=" M239.0103600155849 285.8978222693256L244.9786213389193 279.9295637806368L299.9995322834719 224.9086599226983L193.1245339665428 118.0336616057691V0.0000099212597H106.8754561121975V26.5000772204712H106.9280387885348V153.8265901759593L149.9930622048337 196.8916178442265L149.998731496083 196.8859485529772zM60.9868662836714 285.8978222693256L66.9551276070059 279.9295637806368L138.0620997155575 208.8225987586992L90.0530532275109 160.8163160501368V134.8560644904557L0.0004582677046 224.9086599226983zM60.9868662836714 262.0331065821558L23.865197576926 224.9086599226983L77.0729274476704 171.7009158787257L114.197374107128 208.8225987586992z" />
    <glyph glyph-name="direction-forward"
      unicode="&#xE00F;"
      horiz-adv-x="300" d=" M0.000001 149.99964L26.437539 123.56232L131.24999 228.187682V0.0001H168.75002V228.187682L273.37502 123.37452L300 149.99964L150.00004 299.999895z" />
    <glyph glyph-name="direction-reverse"
      unicode="&#xE010;"
      horiz-adv-x="300" d=" M0.000001 150.00035L26.437539 176.43767L131.24999 71.81231V299.9998904000001H168.75002V71.81231L273.37502 176.62547L300 150.00035L150.00004 0.0001z" />
    <glyph glyph-name="turnout-single-cross-left-cross"
      unicode="&#xE011;"
      horiz-adv-x="300" d=" M299.9990645669439 60.9559317959696V-0.0000184251966H213.7499966338583V25.2626551927141L150.000914173214 89.0117234801303L89.011748991941 149.9979335433396L86.2490750196996 152.760607515581V152.752103578707L71.1069791951657 167.8969773559531L-0.0000070866141 239.0039494645048V298.1249768799217H86.2490750196996V274.7391504765488V274.7391504765488zM299.999078740172 298.1249768799217L299.9990645669439 194.809896617167V84.8206574043991L213.7445966339434 170.4501143236202L213.7502659251927 298.1249768799216zM-0.0000070866141 215.1396773993752L14.4029832377483 200.7366870750128L86.4333695049863 126.6946095008723L86.2490750196996 -0.0000184251966L0.0021188976044 -0.0141916533198zM283.12407900592 281.2499771456696H230.6249963681103L230.2232136972723 177.1499126433085L282.9901420001553 127.0336472908087zM16.9304666625124 170.3182607823896L16.8750493405504 16.8749813090554H69.3741319783602L68.9972658425628 117.1896175245729z" />
    <glyph glyph-name="turnout-single-cross-left-none"
      unicode="&#xE012;"
      horiz-adv-x="300" d=" M299.999078740172 298.1249768799217V289.6874770127957V-0.0000184251966H213.7499966338583V25.2626551927141L86.2490821063137 152.7635697202588V25.2626551927141V-0.0000184251966H0V298.1249768799217H86.2490821063137V274.7391504765488L213.7499966338583 147.2381650828635V274.7391504765488V298.1249768799217zM283.12407900592 281.2499771456696H230.6249963681103L230.4910593623455 201.3180870658569L230.6249963681103 106.4984964330945L69.3740823720617 267.7466608228873V281.2499771456696H16.874999734252V16.8749813090554H69.3740823720617V32.2523810668916V193.5032950629403L230.6249963681103 32.2523810668916V16.8749813090554H283.12407900592zM230.6249963681103 173.1320575884715V106.4984964330946zM69.3740823720617 193.5032950629403L83.7770726964241 179.0975409590939zM86.2490821063137 152.7635697202588V152.7635697202588L89.011756078555 150.0008957480174zM213.7499966338583 152.7607350746341C213.5694580540243 150.0730091327085 215.1972391307521 143.0674375894892 210.9873368348451 150.0008248818768L213.7499966338583 147.2381650828636z" />
    <glyph glyph-name="turnout-single-cross-left-straight"
      unicode="&#xE013;"
      horiz-adv-x="300" d=" M299.999078740172 298.1249768799217V289.6874770127957V-0.0000184251966H213.8053714361359V298.1249768799217zM86.1937214772642 298.1249768799217V289.6874770127957V-0.0000184251966H0V298.1249768799217zM196.9303717018839 165.6695128241022V237.5482738968776V42.0822942979166L149.998164566958 89.0117234801303L103.0910015261259 136.4379668277486L103.0687495579724 257.9167475918623L149.9981929134143 210.9873042364204zM180.0553719676319 157.9297822373263L149.998164566958 187.1225786279909L119.9437209457682 217.1797860286648L119.9196264579586 143.6959068709306L149.9981929134143 112.8764490885599L180.0554003140882 82.8192416878859z" />
    <glyph glyph-name="turnout-single-cross-right-cross"
      unicode="&#xE014;"
      horiz-adv-x="300" d=" M0 60.9559317959696V-0.0000184251966H86.2490764370224V25.2626551927141L149.9981503937299 89.0117234801303L210.987322661617 149.9979335433396L213.7499966338583 152.760607515581V152.752103578707L228.8920924583923 167.8969773559531L299.999078740172 239.0039494645047V298.1249768799217H213.7499966338583V274.7391504765488V274.7391504765488zM-0.0000070866141 298.1249768799217L0 194.809896617167V84.8206574043991L86.2544806889058 170.4501143236202L86.249094862219 298.1249768799216zM299.999078740172 215.1396773993752L285.5960884158096 200.7366870750128L213.5657021485716 126.6946095008723L213.7499966338583 -0.0000184251966L299.9969527559535 -0.0141916533199zM16.8749926476379 281.2499771456696H69.3740752854476L69.7758607909313 177.1499126433085L17.0089282360799 127.0336472908087zM283.0686049910456 170.3182607823896L283.1240223130075 16.8749813090554H230.6249396751978L231.0018058109952 117.1896175245729z" />
    <glyph glyph-name="turnout-single-cross-right-none"
      unicode="&#xE015;"
      horiz-adv-x="300" d=" M0 298.1249768799217V289.6874770127957V-0.0000184251966H86.2490764370224V25.2626551927141L213.7499966338583 152.7635697202588V25.2626551927141V-0.0000184251966H299.999078740172V298.1249768799217H213.7499966338583V274.7391504765488L86.2490764370224 147.2381650828635V274.7391504765488V298.1249768799217zM16.874999734252 281.2499771456696H69.3740767027704L69.5079995353071 201.3180870658569L69.3740767027704 106.4984964330945L230.6249963681103 267.7466608228873V281.2499771456696H283.12407900592V16.8749813090554H230.6249963681103V32.2523810668916V193.5032950629403L69.3740767027704 32.2523810668916V16.8749813090554H16.874999734252zM69.3740767027704 173.1320575884715V106.4984964330946zM230.6249963681103 193.5032950629403L216.2220060437479 179.0975409590939zM213.7499966338583 152.7635697202588V152.7635697202588L210.987322661617 150.0008957480174zM86.2490764370224 152.7607350746341C86.4296249381161 150.0730091327085 84.8018424440655 143.0674375894892 89.0117475746181 150.0008248818768L86.2490764370224 147.2381650828635z" />
    <glyph glyph-name="turnout-single-cross-right-straight"
      unicode="&#xE016;"
      horiz-adv-x="300" d=" M0 298.1249768799217V289.6874770127957V-0.0000184251966H86.1937115560046V298.1249768799217zM213.8053572629078 298.1249768799217V289.6874770127957V-0.0000184251966H299.999078740172V298.1249768799217zM103.0687112902565 165.6695128241022V237.5482738968776V42.0822942979166L150.000914173214 89.0117234801303L196.908077214046 136.4379668277486L196.9303291821995 257.9167475918623L150.0008858267577 210.9873042364204zM119.9437110245085 157.9297822373263L150.000914173214 187.1225786279909L180.0553577944038 217.1797860286648L180.0794522822134 143.6959068709306L150.0008858267577 112.8764490885599L119.9436826780522 82.8192416878859z" />
    <glyph glyph-name="warn"
      unicode="&#xE017;"
      horiz-adv-x="300" d=" M262.452439954 13.25714213H37.547560048C21.75187228 13.25714213 10.670401404 18.7060421739999 4.333759218 29.603842262C-2.002882968 40.50164235 -1.390647008 52.838196944 6.170467098 66.644117842L119.617790486 269.875844764C127.393187178 283.896048248 137.525692316 290.90614999 149.984694102 290.90614999C152.862203114 290.90614999 155.709100328 290.4469730200001 158.494773946 289.559230878C161.280447564 288.671488736 163.94367399 287.324569624 166.515065022 285.54908534C169.086456054 283.773601056 171.504788096 281.538939802 173.861896542 278.875713376C176.219004988 276.2124869500001 178.269995454 273.2125307460001 180.045479738 269.875844764L293.829532904 66.644117842C301.39064701 52.623914358 302.00288297 40.226136168 295.666240784 29.450783272C289.329598598 18.675430376 278.27873952 13.25714213 262.452439954 13.25714213zM150.0153059 269.539114986C148.02553903 269.539114986 146.005160362 268.651372844 144.015393492 266.87588856C141.995014824 265.100404276 140.127695146 262.651460436 138.352210862 259.52905704L24.874275676 55.96060034C21.109024522 49.287228376 20.313117774 44.052610918 22.547779028 40.287359764C24.782440282 36.52210861 29.772163356 34.624177134 37.547560048 34.624177134H262.4524399540001C270.2278366460001 34.624177134 275.2481715180001 36.52210861 277.4522209740001 40.287359764C279.6868822280001 44.052610918 278.8909754800001 49.287228376 275.1257243260001 55.96060034L161.34167116 259.52905704C157.790702592 266.202429004 153.99483964 269.539114986 150.0153059 269.539114986zM150.0153059 109.68430583C147.137796888 109.68430583 144.627629452 110.75571876 142.51541539 112.867932822C140.403201328 114.980146884 139.331788398 117.49031432 139.331788398 120.367823332V216.488869052C139.331788398 219.366378064 140.403201328 221.8765455 142.51541539 223.988759562C144.627629452 226.100973624 147.137796888 227.172386554 150.0153059 227.172386554C152.892814912 227.172386554 155.402982348 226.100973624 157.51519641 223.988759562C159.627410472 221.8765455 160.698823402 219.366378064 160.698823402 216.488869052V120.39843513C160.698823402 117.520926118 159.627410472 115.010758682 157.51519641 112.89854462C155.402982348 110.75571876 152.892814912 109.68430583 150.0153059 109.68430583zM134.005335546 72.33791227C134.005335546 75.215421282 134.740018698 77.909259506 136.178773204 80.358203346C137.61752771 82.807147186 139.576682782 84.766302258 142.025626622 86.205056764C144.474570462 87.64381127 147.137796888 88.378494422 150.045917698 88.378494422C152.92342671 88.378494422 155.617264934 87.64381127 158.066208774 86.205056764C160.515152614 84.766302258 162.474307686 82.807147186 163.913062192 80.358203346C165.351816698 77.909259506 166.08649985 75.24603308 166.08649985 72.33791227C166.08649985 67.89920156 164.525298152 64.103338608 161.402894756 60.980935212C158.28049136 57.858531816 154.515240206 56.297330118 150.045917698 56.297330118C145.607206988 56.297330118 141.811344036 57.858531816 138.68894064 60.980935212C135.535925446 64.103338608 133.974723748 67.868589762 134.005335546 72.33791227z" />
  </font>
</defs>
</svg>
